<svg xmlns="http://www.w3.org/2000/svg" viewBox="0 0 120 120">
  <rect width="120" height="120" rx="18" fill="#fff8e2"/>
  <rect x="4" y="4" width="112" height="112" rx="14" fill="none" stroke="#d4c178" stroke-width="5"/>
  <ellipse cx="60" cy="112" rx="35" ry="5" fill="rgba(42,26,14,.22)"/>
  <path d="M31 76 Q27 80 27 88 L27 111 L93 111 L93 88 Q93 80 89 76 L75 70 L45 70 Z" fill="#f6f1e4"/>
  <line x1="60" y1="77" x2="60" y2="111" stroke="#dcd3bf" stroke-width="2"/>
  <path d="M49 70 L60 82 L71 70 L66 67 L60 74 L54 67 Z" fill="#dcd3bf"/>
  <path d="M27 88 Q20 93 19 106 L18 112 L32 112 L35 92 Z" fill="#f6f1e4"/>
  <path d="M93 88 Q100 93 101 106 L102 112 L88 112 L85 92 Z" fill="#f6f1e4"/>
  <rect x="16" y="99" width="21" height="15" rx="2" fill="#2e2a26" transform="rotate(-8 26.5 106.5)"/>
  <rect x="19" y="102" width="15" height="9" fill="#3f6f7a" transform="rotate(-8 26.5 106.5)"/>
  <rect x="51" y="61" width="18" height="14" fill="#d9a779"/>
  <ellipse cx="60" cy="45" rx="23" ry="25" fill="#d9a779"/>
  <path d="M37 42 Q38 22 60 19 Q82 22 83 42 Q80 34 76 31 L73 35 Q65 27 60 29 Q55 27 47 35 L44 31 Q40 34 37 42 Z" fill="#1a1410"/>
  <path d="M37 42 Q37 52 43 55 L43 48 Z" fill="#1a1410"/>
  <path d="M83 42 Q83 52 77 55 L77 48 Z" fill="#1a1410"/>
  <path d="M42 50 Q42 64 50 70 Q60 76 70 70 Q78 64 78 50 Q73 58 60 58 Q47 58 42 50 Z" fill="#241a14"/>
  <ellipse cx="51" cy="46" rx="2.2" ry="2.8" fill="#1a1410"/>
  <ellipse cx="69" cy="46" rx="2.2" ry="2.8" fill="#1a1410"/>
  <path d="M48 41 Q52 39 56 41" stroke="#1a1410" stroke-width="2" fill="none" stroke-linecap="round"/>
  <path d="M64 41 Q68 39 72 41" stroke="#1a1410" stroke-width="2" fill="none" stroke-linecap="round"/>
  <path d="M53 60 Q60 64 67 60" stroke="#1a1410" stroke-width="1.8" fill="none" stroke-linecap="round" opacity=".7"/>
  <rect x="88" y="99" width="14" height="6" rx="1.5" fill="#d4c178"/>
</svg>
